<svg width="180" height="55" viewBox="0 0 180 55" fill="none" xmlns="http://www.w3.org/2000/svg">
<path d="M66.5255 47.2923V53.0443H65.5783V48.9433L63.8268 51.8378H63.7156L61.9641 48.938V53.0443H61.0169V47.2923H62.0382L63.7738 50.171L65.5148 47.2923H66.5255Z" fill="#414042"/>
<path d="M70.9917 47.1864C71.8224 47.1864 72.5262 47.4722 73.103 48.0595C73.6851 48.6363 73.9762 49.3401 73.9762 50.1709C73.9762 51.0017 73.6904 51.7055 73.103 52.2929C72.5262 52.8697 71.8224 53.1554 70.9917 53.1554C70.1609 53.1554 69.4571 52.8697 68.8697 52.2929C68.2929 51.7108 68.0072 51.0017 68.0072 50.1709C68.0072 49.3401 68.2982 48.6363 68.8697 48.0595C69.4571 47.4722 70.1609 47.1864 70.9917 47.1864ZM70.9917 52.2294C71.5684 52.2294 72.05 52.0336 72.4363 51.6473C72.8279 51.2504 73.0289 50.7583 73.0289 50.1656C73.0289 49.573 72.8332 49.0808 72.4363 48.6945C72.05 48.303 71.5632 48.1019 70.9917 48.1019C70.4149 48.1019 69.9333 48.2977 69.5364 48.6945C69.1502 49.0808 68.9544 49.573 68.9544 50.1656C68.9544 50.7583 69.1502 51.2504 69.5364 51.6473C69.9333 52.0336 70.4149 52.2294 70.9917 52.2294ZM70.9758 46.1916L70.5736 46.7578H69.7375L70.5419 45.6889H71.4044L72.2193 46.7578H71.3832L70.9758 46.1916ZM70.6054 54.69C70.3937 54.4572 70.3937 54.1291 70.6054 53.9068C70.8276 53.6846 71.1716 53.6846 71.3938 53.9068C71.6055 54.1291 71.6055 54.4572 71.3832 54.69C71.1663 54.9017 70.8382 54.9017 70.6054 54.69Z" fill="#414042"/>
<path d="M79.1991 47.2923V48.1972H77.5798V53.0443H76.6326V48.1972H75.0081V47.2923H79.1991Z" fill="#414042"/>
<path d="M83.7551 52.2982C83.1889 51.7214 82.8979 51.0176 82.8979 50.1709C82.8979 49.3242 83.1889 48.6151 83.7551 48.0489C84.3213 47.4721 85.0463 47.1864 85.9088 47.1864C86.9513 47.1864 87.8879 47.7103 88.3853 48.5569L87.5651 49.0332C87.2635 48.467 86.6391 48.1019 85.9141 48.1019C85.3003 48.1019 84.8029 48.2977 84.4166 48.6839C84.0409 49.0702 83.8504 49.5624 83.8504 50.1656C83.8504 50.7636 84.0409 51.261 84.4166 51.642C84.8029 52.0283 85.295 52.2241 85.9141 52.2241C86.6391 52.2241 87.2688 51.8642 87.5651 51.2927L88.3853 51.7637C88.1472 52.1817 87.8033 52.5204 87.3588 52.7744C86.9248 53.0231 86.438 53.1448 85.9141 53.1448C85.0463 53.1501 84.3213 52.8644 83.7551 52.2982Z" fill="#414042"/>
<path d="M93.1955 47.2923H94.1427V53.0443H93.1955V50.5573H90.7296V53.0443H89.7877V47.2923H90.7296V49.6524H93.1955V47.2923Z" fill="#414042"/>
<path d="M99.6619 53.0443L99.2597 51.8855H96.8097L96.4075 53.0443H95.3809L97.4711 47.2923H98.6035L100.683 53.0443H99.6619ZM97.1219 51.0018H98.9475L98.0373 48.4036L97.1219 51.0018ZM97.6299 54.69C97.4182 54.4572 97.4182 54.1291 97.6299 53.9069C97.8521 53.6846 98.1961 53.6846 98.4183 53.9069C98.63 54.1291 98.63 54.4572 98.4078 54.69C98.1908 54.9017 97.8574 54.9017 97.6299 54.69Z" fill="#414042"/>
<path d="M107.419 47.2923V53.0443H106.478V48.9433L104.726 51.8378H104.61L102.858 48.938V53.0443H101.916V47.2923H102.932L104.668 50.171L106.409 47.2923H107.419Z" fill="#414042"/>
<path d="M111.965 50.8906C111.759 50.6842 111.663 50.4408 111.663 50.1498C111.663 49.8693 111.764 49.6312 111.965 49.4354C112.171 49.2396 112.415 49.1391 112.706 49.1391C112.986 49.1391 113.224 49.2396 113.42 49.4354C113.616 49.6312 113.717 49.8693 113.717 50.1498C113.717 50.4355 113.616 50.6842 113.42 50.8906C113.224 51.097 112.986 51.1922 112.706 51.1922C112.415 51.1975 112.171 51.097 111.965 50.8906Z" fill="#414042"/>
<path d="M119.416 53.0443L117.415 47.2923H118.453L119.982 51.9013L121.516 47.2923H122.548L120.548 53.0443H119.416Z" fill="#414042"/>
<path d="M126.993 53.0443L126.591 51.8855H124.141L123.739 53.0443H122.712L124.803 47.2923H125.935L128.015 53.0443H126.993ZM124.453 51.0018H126.279L125.369 48.4036L124.453 51.0018ZM124.967 54.69C124.755 54.4572 124.755 54.1291 124.967 53.9069C125.189 53.6846 125.533 53.6846 125.755 53.9069C125.967 54.1291 125.967 54.4572 125.745 54.69C125.522 54.9017 125.194 54.9017 124.967 54.69Z" fill="#414042"/>
<path d="M132.703 47.2923H133.65V53.0443H132.909L130.195 49.1391V53.0443H129.253V47.2923H129.988L132.703 51.1975V47.2923Z" fill="#414042"/>
<path d="M141.831 47.2923V48.1972H140.212V53.0443H139.265V48.1972H137.64V47.2923H141.831Z" fill="#414042"/>
<path d="M144.096 47.2923H143.149V53.0443H144.096V47.2923Z" fill="#414042"/>
<path d="M146.805 52.1394H149.356V53.0443H145.863V47.2922H149.314V48.1971H146.805V49.6947H149.107V50.5889H146.805V52.1394ZM147.578 46.2339L147.176 46.8001H146.334L147.139 45.7312H148.001L148.816 46.8001H147.98L147.578 46.2339ZM147.171 54.69C146.959 54.4572 146.959 54.1291 147.171 53.9068C147.393 53.6846 147.737 53.6846 147.959 53.9068C148.171 54.1291 148.171 54.4572 147.954 54.69C147.726 54.9017 147.398 54.9017 147.171 54.69Z" fill="#414042"/>
<path d="M154.288 47.2923H155.235V53.0443H154.494L151.785 49.1391V53.0443H150.838V47.2923H151.578L154.288 51.1975V47.2923Z" fill="#414042"/>
<path d="M163.13 47.2923H164.077V53.0443H163.337L160.622 49.1391V53.0443H159.68V47.2923H160.415L163.13 51.1975V47.2923Z" fill="#414042"/>
<path d="M171.443 50.0704V50.4672C171.443 51.2557 171.179 51.9066 170.66 52.4093C170.142 52.912 169.459 53.1554 168.623 53.1554C167.734 53.1554 167.004 52.8696 166.422 52.2929C165.845 51.7161 165.559 51.0123 165.559 50.1709C165.559 49.3401 165.845 48.631 166.422 48.0595C167.004 47.4774 167.718 47.1864 168.575 47.1864C169.655 47.1864 170.591 47.7209 171.084 48.5517L170.269 49.0173C169.967 48.467 169.321 48.1019 168.575 48.1019C167.977 48.1019 167.475 48.2976 167.088 48.6945C166.702 49.0861 166.506 49.5835 166.506 50.1709C166.506 50.7636 166.702 51.2557 167.088 51.642C167.48 52.0283 167.998 52.2241 168.633 52.2241C169.655 52.2241 170.316 51.7055 170.491 50.9064H168.565V50.0598H171.443V50.0704Z" fill="#414042"/>
<path d="M176.338 47.2923H177.285V53.0443H176.338V50.5573H173.872V53.0443H172.925V47.2923H173.872V49.6524H176.338V47.2923Z" fill="#414042"/>
<path d="M180 47.2923H179.053V53.0443H180V47.2923Z" fill="#414042"/>
<path d="M58.2493 30.6976C58.2493 30.7664 58.2493 30.8405 58.2546 30.9093L58.2493 30.6976Z" fill="#008C4F"/>
<path d="M180 8.56256H174.465V41.7625H180V8.56256Z" fill="#008C4F"/>
<path d="M113.59 8.55725H108.054V27.93C108.06 29.4964 107.615 31.0839 106.689 32.4967C104.17 36.3279 99.0216 37.3862 95.1904 34.8674C92.7722 33.2746 91.4545 30.6288 91.4545 27.93V8.55725H85.9194V27.93H85.9142C85.9194 32.4279 88.1102 36.8359 92.1424 39.487C98.5242 43.6886 107.107 41.9212 111.304 35.5342C112.849 33.1847 113.59 30.5388 113.584 27.9247H113.579V8.55725H113.59Z" fill="#008C4F"/>
<path d="M70.2879 34.8674C67.8696 33.2746 66.552 30.6288 66.552 27.9353V8.55725H61.0169V28.1417C61.0645 31.031 62.0117 33.8779 63.7738 36.2327C64.5464 37.2592 65.4725 38.1959 66.5467 39.0002C66.7742 39.1695 67.0017 39.3283 67.2399 39.487C69.5312 41.0004 72.1135 41.736 74.6694 41.7624H83.1466V36.2327H74.8387C73.283 36.2327 71.6955 35.7934 70.2879 34.8674Z" fill="#008C4F"/>
<path d="M162.702 10.838C156.553 6.7899 148.377 8.29802 144.027 14.1189C143.091 12.87 141.948 11.7429 140.566 10.838C134.185 6.63644 125.602 8.40385 121.405 14.7909C119.86 17.1404 119.119 19.7862 119.125 22.4003H119.13V41.7678H124.665V22.4003C124.66 20.834 125.104 19.2465 126.03 17.8336C128.549 14.0024 133.698 12.9441 137.529 15.4629C139.942 17.0504 141.254 19.6804 141.265 22.3686C141.265 22.3791 141.265 22.3897 141.265 22.395H141.27V41.7625H146.805V22.395H146.811C146.811 22.3897 146.811 22.3791 146.811 22.3738C146.811 20.8128 147.25 19.2359 148.176 17.8283C150.695 13.9971 155.844 12.9388 159.675 15.4576C162.093 17.0504 163.411 19.6963 163.411 22.395V41.7625H168.946V22.395C168.93 17.9024 166.739 13.4944 162.702 10.838Z" fill="#008C4F"/>
<path d="M36.5958 36.7989C30.103 43.2706 19.5884 43.2547 13.1167 36.7618C6.64501 30.269 6.66088 19.7544 13.1538 13.2827C19.6466 6.81102 30.1612 6.8269 36.6329 13.3198C43.1046 19.8179 43.0887 30.3272 36.5958 36.7989Z" fill="#008C4F"/>
<path d="M43.2951 10.5893C42.2103 11.6688 40.4587 11.6635 39.3792 10.584C38.2997 9.49923 38.305 7.74769 39.3845 6.66819C40.4693 5.58869 42.2209 5.59398 43.3004 6.67348C44.3799 7.75827 44.3799 9.50981 43.2951 10.5893Z" fill="#008C4F"/>
<path d="M43.2951 10.5893C42.2103 11.6688 40.4587 11.6635 39.3792 10.584C38.2997 9.49923 38.305 7.74769 39.3845 6.66819C40.4693 5.58869 42.2209 5.59398 43.3004 6.67348C44.3799 7.75827 44.3799 9.50981 43.2951 10.5893Z" fill="#008C4F"/>
<path d="M46.0044 15.4364C45.9938 15.447 45.9832 15.4523 45.9727 15.4576C45.4752 15.8227 45.29 16.4736 45.5123 17.0504C48.6344 25.1255 46.8458 34.6558 40.1518 41.0481C31.6481 49.1708 18.0803 49.1708 9.58189 41.0322C0.57548 32.4174 0.469647 18.1246 9.24852 9.36691C15.662 2.97987 25.0124 1.33945 32.934 4.42979C33.5055 4.65204 34.1564 4.46683 34.5268 3.9747C34.5321 3.96412 34.5427 3.95354 34.548 3.94295C35.0824 3.22329 34.7967 2.18612 33.9606 1.86333C24.806 -1.71913 13.9581 0.318163 6.72969 7.99637C-2.07564 17.352 -2.26614 32.0787 6.31164 41.6461C15.916 52.3511 32.3943 52.7056 42.4484 42.6832C49.6715 35.4866 51.5448 24.9562 48.0787 16.0238C47.756 15.1877 46.7241 14.9073 46.0044 15.4364Z" fill="#008C4F"/>
</svg>
