<svg width="101" height="100" viewBox="0 0 101 100" fill="none" xmlns="http://www.w3.org/2000/svg">
<path d="M16.247 69.7004C18.9299 71.8948 22.3433 73.2171 26.0797 73.2171C29.8021 73.2171 33.2294 71.9089 35.9264 69.7004C39.3819 66.859 41.6153 62.5405 41.6153 57.6734C41.6153 49.0927 34.6622 42.1438 26.0937 42.1438C17.5393 42.1438 10.5862 49.0927 10.5862 57.6734C10.5581 62.5405 12.7775 66.859 16.247 69.7004Z" fill="#008C4F"/>
<path d="M93.2229 75.3692C91.3968 73.5406 89.3039 71.9792 87.0002 70.7554C84.4999 73.0764 81.3253 74.68 77.8137 75.2567L76.2686 78.6327L78.1368 90.927L74.9341 96.7787L71.7315 90.927L73.5997 78.6327L72.0546 75.2567C68.5288 74.68 65.3683 73.0764 62.868 70.7554C57.1229 73.7938 52.6701 78.9281 50.507 85.1456C49.2287 81.432 47.0936 78.0841 44.3686 75.3692C42.5425 73.5406 40.4495 71.9792 38.1459 70.7554C35.6596 73.0764 32.4851 74.68 28.9734 75.2567L27.4142 78.6327L29.2965 90.927L26.0798 96.7787L22.8771 90.927L24.7594 78.6327L23.2002 75.2567C19.6885 74.68 16.514 73.0764 14.0137 70.7554C5.79639 75.102 0.205811 83.7389 0.205811 93.6841V100H49.0601H51.9538H100.794V93.6841C100.794 86.5382 97.9004 80.0534 93.2229 75.3692Z" fill="#008C4F"/>
<path d="M74.9201 42.1438C66.3517 42.1438 59.4126 49.0927 59.4126 57.6734C59.4126 62.5264 61.6179 66.8449 65.1015 69.7004C67.7704 71.8948 71.1978 73.2171 74.9342 73.2171C78.6565 73.2171 82.0839 71.9089 84.7668 69.7004C88.2364 66.859 90.4557 62.5405 90.4557 57.6734C90.4417 49.0927 83.5026 42.1438 74.9201 42.1438Z" fill="#008C4F"/>
<path d="M16.4157 34.8854H42.0369L49.3271 47.3625C49.608 47.8408 50.1137 48.1221 50.6615 48.1221C51.2093 48.1221 51.715 47.8267 51.996 47.3484L59.2721 34.8713H84.9073C85.7642 34.8713 86.4525 34.182 86.4525 33.324V1.54733C86.4525 0.689267 85.7642 0 84.9073 0H16.4157C15.5589 0 14.8706 0.689267 14.8706 1.54733V33.338C14.8706 34.1961 15.5589 34.8854 16.4157 34.8854ZM17.9609 3.09467H83.3622V31.7907H58.3872C58.317 31.7907 58.2608 31.8188 58.2046 31.8329C58.0922 31.847 57.9939 31.861 57.8956 31.8892C57.7972 31.9173 57.713 31.9736 57.6287 32.0158C57.5444 32.058 57.4601 32.1142 57.3899 32.1705C57.3056 32.2408 57.2494 32.3252 57.1792 32.4096C57.137 32.4659 57.0949 32.494 57.0528 32.5503L50.6615 43.5082L44.2562 32.5503C44.2282 32.494 44.172 32.4659 44.1298 32.4096C44.0596 32.3252 44.0034 32.2408 43.9191 32.1705C43.8489 32.1002 43.7646 32.058 43.6803 32.0017C43.5961 31.9595 43.5118 31.9032 43.4134 31.8751C43.3151 31.847 43.2027 31.8188 43.1044 31.8188C43.0342 31.8048 42.978 31.7766 42.9218 31.7766H17.9609V3.09467Z" fill="#A4A6A8"/>
<path d="M36.0951 13.6165C34.0724 13.6165 32.429 15.2623 32.429 17.2879C32.429 19.3135 34.0724 20.9593 36.0951 20.9593C38.1179 20.9593 39.7613 19.3135 39.7613 17.2879C39.7613 15.2482 38.1179 13.6165 36.0951 13.6165Z" fill="#A4A6A8"/>
<path d="M50.6615 20.9453C52.6843 20.9453 54.3277 19.2995 54.3277 17.2739C54.3277 15.2483 52.6843 13.6025 50.6615 13.6025C48.6388 13.6025 46.9954 15.2483 46.9954 17.2739C46.9954 19.2995 48.6388 20.9453 50.6615 20.9453Z" fill="#A4A6A8"/>
<path d="M65.228 20.9453C67.2507 20.9453 68.8941 19.2995 68.8941 17.2739C68.8941 15.2483 67.2507 13.6025 65.228 13.6025C63.2052 13.6025 61.5618 15.2483 61.5618 17.2739C61.5618 19.2995 63.2052 20.9453 65.228 20.9453Z" fill="#A4A6A8"/>
</svg>
