<svg width="90" height="100" viewBox="0 0 90 100" fill="none" xmlns="http://www.w3.org/2000/svg">
<g clip-path="url(#clip0_124_122)">
<path d="M89.5603 81.0862V100H0V81.0862C0 66.0745 8.99825 53.1741 21.8987 47.4519C26.4997 52.548 32.7606 56.0862 39.8078 57.2364L42.5015 63.046L39.2545 84.3331L44.802 94.4234L50.3494 84.3331L47.1025 63.046L49.7962 57.2364C56.8579 56.0862 63.1188 52.5335 67.7053 47.4374C80.5766 53.1596 89.5603 66.0745 89.5603 81.0862Z" fill="#008C4F"/>
<path d="M44.7729 0C29.9505 0 17.9237 12.0268 17.9237 26.8637C17.9237 41.7006 29.9505 53.7274 44.7874 53.7274C59.6243 53.7274 71.6366 41.6861 71.6366 26.8637C71.6366 12.0414 59.6098 0 44.7729 0ZM44.7729 47.7286C33.2557 47.7286 23.908 38.3809 23.908 26.8637C23.908 15.332 33.2557 5.99884 44.7729 5.99884C56.3046 5.99884 65.6377 15.332 65.6377 26.8637C65.6523 38.3663 56.3046 47.7286 44.7729 47.7286Z" fill="#008C4F"/>
<path d="M44.7729 10.9348C35.9931 10.9348 28.8731 18.0548 28.8731 26.8492C28.8731 28.3052 29.0915 29.7176 29.4555 31.0571L8.51782 41.5405L11.2843 47.0734L32.222 36.59C35.134 40.332 39.6623 42.749 44.7729 42.749C53.5673 42.749 60.6873 35.6436 60.6873 26.8492C60.7019 18.0694 53.5673 10.9348 44.7729 10.9348ZM44.7729 37.3763C38.9634 37.3763 34.2458 32.6733 34.2458 26.8492C34.2458 21.0396 38.9488 16.3221 44.7729 16.3221C50.5825 16.3221 55.3 21.0251 55.3 26.8492C55.3 32.6733 50.597 37.3763 44.7729 37.3763Z" fill="#A4A6A8"/>
</g>
<defs>
<clipPath id="clip0_124_122">
<rect width="89.5603" height="100" fill="white"/>
</clipPath>
</defs>
</svg>
