<svg width="91" height="100" viewBox="0 0 91 100" fill="none" xmlns="http://www.w3.org/2000/svg">
<path d="M51.8639 19.4312V0H4.75941C2.51969 0 0.688477 1.82124 0.688477 4.06276V95.9232C0.688477 98.1788 2.51969 99.986 4.75941 99.986H67.3165C69.5562 99.986 71.4015 98.1647 71.4015 95.9232V19.4312H51.8639ZM10.4362 19.7254C10.4362 16.6994 12.2956 14.1216 14.9438 13.0429C13.9718 12.2443 13.352 11.0395 13.352 9.68058C13.352 7.27094 15.31 5.33763 17.7047 5.33763C20.0993 5.33763 22.0573 7.28495 22.0573 9.68058C22.0573 11.0395 21.4375 12.2443 20.4656 13.0429C23.1138 14.1216 24.9732 16.7134 24.9732 19.7254V21.4766H10.4362V19.7254ZM11.6053 28.9717H60.4565C61.6397 28.9717 62.5976 29.9243 62.5976 31.1011C62.5976 32.278 61.6397 33.2166 60.4565 33.2166H11.6053C10.4221 33.2166 9.4783 32.278 9.4783 31.1011C9.4783 29.9243 10.4362 28.9717 11.6053 28.9717ZM11.6053 41.104H60.4565C61.6397 41.104 62.5976 42.0566 62.5976 43.2334C62.5976 44.4102 61.6397 45.3628 60.4565 45.3628H11.6053C10.4221 45.3628 9.4783 44.4102 9.4783 43.2334C9.49239 42.0566 10.4362 41.104 11.6053 41.104ZM9.49239 55.3516C9.49239 54.1748 10.4362 53.2362 11.6194 53.2362H60.4706C61.6538 53.2362 62.6117 54.1748 62.6117 55.3516C62.6117 56.5284 61.6538 57.4811 60.4706 57.4811H11.6053C10.4362 57.4811 9.49239 56.5284 9.49239 55.3516Z" fill="#008C4F"/>
<path d="M90.3193 57.9294C90.0657 57.4391 89.4741 57.2569 88.9811 57.5091L41.5808 81.7876L20.5218 68.8848C20.1697 68.6747 19.6907 68.6887 19.3527 68.9689C18.9301 69.3191 18.8596 69.9496 19.2118 70.3699L37.5944 92.617C39.2002 94.5503 42.0738 94.9145 44.1022 93.4015L44.4262 93.1634L90.0094 59.1903C90.4179 58.8961 90.5447 58.3777 90.3193 57.9294Z" fill="#A4A6A8"/>
</svg>
