<svg width="117" height="100" viewBox="0 0 117 100" fill="none" xmlns="http://www.w3.org/2000/svg">
<path d="M97.6404 61.3019L94.4182 58.0635L91.2937 54.939L58.096 21.7413L63.9056 15.9317L48.5273 12.1725C45.8096 9.45484 41.7087 9.01546 38.5191 10.8055L27.7136 0L0 27.6973L10.7893 38.4866C8.99919 41.6924 9.45484 45.7933 12.1562 48.511L21.725 58.0635L53.9788 91.2286C54.1253 91.4076 54.2718 91.6029 54.4345 91.7819L57.6241 94.9715L60.8137 98.1448C63.2872 100.618 67.2905 100.618 69.764 98.1448L70.4475 97.4613C72.384 95.5248 72.7746 92.6444 71.668 90.3011C74.0114 91.4076 76.8918 91.0171 78.8446 89.0643L79.5281 88.3808C81.4646 86.4443 81.8552 83.5639 80.7486 81.2205C83.0919 82.3271 85.9723 81.9365 87.9251 79.9837L88.5923 79.3165C90.5452 77.3637 90.9357 74.4833 89.8291 72.14C92.1725 73.2465 95.0529 72.856 97.0057 70.9032L97.6404 70.2522C100.114 67.7624 100.114 63.7754 97.6404 61.3019ZM10.8706 32.1562C8.96664 32.1562 7.43694 30.594 7.43694 28.7063C7.43694 26.8023 8.98291 25.2563 10.8706 25.2563C12.7909 25.2563 14.3206 26.8186 14.3206 28.7063C14.3206 30.594 12.7746 32.1562 10.8706 32.1562Z" fill="#A4A6A8"/>
<path d="M116.16 27.6973L88.446 0L77.673 10.7893C74.4672 8.99919 70.3663 9.42229 67.6486 12.1562L58.0961 21.725L50.5453 29.2596L49.6177 37.201L48.2507 48.7063C47.6974 53.2628 50.9684 57.4125 55.5412 57.9658C58.1938 58.275 60.6836 57.2986 62.4086 55.5736C63.6779 54.3043 64.5567 52.5956 64.7845 50.6753L66.3956 36.9406L69.8455 33.4906L94.4183 58.0635L103.987 48.511C106.688 45.7933 107.144 41.6924 105.354 38.4866L116.16 27.6973ZM101.839 28.69C101.839 26.786 103.385 25.24 105.289 25.24C107.193 25.24 108.723 26.8023 108.723 28.69C108.723 30.594 107.177 32.1399 105.289 32.1399C103.369 32.1562 101.839 30.594 101.839 28.69Z" fill="#008C4F"/>
<path d="M66.4605 78.0961L65.777 77.4126C63.8405 75.476 60.9438 75.0855 58.6005 76.1921C59.7071 73.8487 59.3165 70.9683 57.38 69.0155L56.6965 68.3483C54.7599 66.4118 51.8633 66.0212 49.5199 67.1278C50.6265 64.7844 50.2359 61.904 48.2994 59.9512L47.6159 59.2677C45.6794 57.3312 42.7827 56.9407 40.4394 58.0472C41.5459 55.7039 41.1554 52.8235 39.2189 50.8707L38.5354 50.1872C36.0618 47.7136 32.0586 47.7136 29.585 50.1872L23.2221 56.5501C20.7486 59.0236 20.7486 63.0269 23.2221 65.5005L23.9056 66.1839C25.8421 68.1205 28.7388 68.511 31.0822 67.4044C29.9756 69.7478 30.3661 72.6282 32.3027 74.581L32.9861 75.2645C34.9227 77.201 37.8193 77.5916 40.1627 76.485C39.0561 78.8284 39.4467 81.7088 41.3832 83.6616L42.0667 84.3451C44.0032 86.2816 46.8999 86.6721 49.2433 85.5656C48.1367 87.9089 48.5272 90.7893 50.4638 92.7421L51.1473 93.4256C53.6208 95.8992 57.6241 95.8992 60.0976 93.4256L66.4605 87.0627C68.9341 84.5729 68.9341 80.5696 66.4605 78.0961Z" fill="#008C4F"/>
</svg>
