<svg width="94" height="100" viewBox="0 0 94 100" fill="none" xmlns="http://www.w3.org/2000/svg">
<g clip-path="url(#clip0_124_74)">
<path d="M93.0869 47.4547C90.7751 36.3274 85.2414 26.1274 77.0682 17.9819C68.9314 9.83646 58.7194 4.32737 47.5609 2.0001C46.5597 1.8001 45.5768 2.43646 45.3765 3.43646L44.3753 8.12737C44.2661 8.6001 44.3753 9.10919 44.6484 9.50919C44.9214 9.92737 45.3401 10.2183 45.8316 10.3092C55.3154 12.2728 64.0347 17.0183 71.0429 24.0001C77.9783 30.9274 82.7111 39.6365 84.7499 49.1637C84.8227 49.5274 85.0047 49.8546 85.2414 50.091C85.6782 50.5274 86.2971 50.7274 86.9342 50.6001L91.6671 49.6183C92.6682 49.4365 93.3053 48.4547 93.0869 47.4547Z" fill="#A4A6A8"/>
<path d="M62.6331 53.9637C61.5045 48.7273 58.865 43.9273 54.9878 40.0546C51.1469 36.2182 46.3231 33.6001 41.0442 32.491C40.043 32.2728 39.06 32.9273 38.8416 33.9273L37.8222 38.6364C37.7312 39.1273 37.804 39.6364 38.0953 40.0364C38.1681 40.1455 38.2409 40.2364 38.3319 40.3455C38.5868 40.6001 38.8962 40.7637 39.2603 40.8546C46.6507 42.4001 52.6578 48.4001 54.205 55.7819C54.3143 56.2728 54.6055 56.691 55.0242 56.9637C55.4428 57.2364 55.9343 57.3273 56.4258 57.2182L61.2132 56.1819C61.7047 56.091 62.1234 55.8001 62.3782 55.3819C62.6331 54.9455 62.7241 54.4546 62.6331 53.9637Z" fill="#A4A6A8"/>
<path d="M77.8691 50.7091C76.1398 42.5091 72.0623 35.0001 66.0552 29.0001C60.0664 23.0182 52.5485 18.9455 44.3025 17.2182C43.3013 17.0182 42.3184 17.6546 42.0999 18.6546L41.0806 23.3637C40.9895 23.8546 41.0806 24.3455 41.3354 24.7637C41.4082 24.8728 41.4992 24.9819 41.5902 25.0728C41.8451 25.3273 42.1545 25.5091 42.5186 25.5819C49.1081 26.9637 55.1516 30.2364 59.9754 35.0728C64.7992 39.8728 68.094 45.9091 69.532 52.4728C69.7505 53.4728 70.7334 54.1091 71.7346 53.891L76.431 52.9091C77.4322 52.691 78.0693 51.7091 77.8691 50.7091Z" fill="#A4A6A8"/>
<path d="M82.8386 88.6001C82.8386 88.6001 81.3278 90.1638 79.016 92.1274C78.3607 92.6729 77.6507 93.2547 76.9226 93.8183C72.3536 97.4001 66.1282 101.236 61.905 99.6183C34.8916 89.1456 7.20468 57.2001 1.12484 21.4365C-0.112972 14.0365 6.51296 7.6183 11.7919 3.78194C12.5928 3.18194 13.3755 2.65467 14.0855 2.2183C16.2516 0.78194 17.8353 0.00012207 17.8353 0.00012207L28.3021 26.9638C28.3021 26.9638 26.9915 29.0547 25.6626 31.5819C25.1894 32.491 24.6979 33.491 24.2792 34.4547C23.4419 36.2547 22.823 37.9819 22.823 39.0728C22.823 47.3274 37.6767 70.0183 45.3948 72.6365C46.7054 73.0729 49.5815 72.8183 52.5669 72.3456H52.5851C53.6044 72.1819 54.642 72.0001 55.6432 71.8183C59.0654 71.1638 61.9415 70.4365 61.9415 70.4365L82.8386 88.6001Z" fill="#008C4F"/>
<path d="M25.0436 12.7455C27.9561 20.2 29.4124 26.6 28.3202 27.0364C27.228 27.4728 23.9697 21.7637 21.0572 14.3091C18.1447 6.85459 16.6884 0.454592 17.7806 0.0182287C18.891 -0.399953 22.1493 5.29096 25.0436 12.7455Z" fill="#67696A"/>
<path d="M70.9884 81.0727C65.1816 76.0727 61.0677 71.3091 61.814 70.4546C62.5603 69.6 67.8574 72.9636 73.6642 77.9636C79.471 82.9818 83.5667 87.7273 82.8386 88.5818C82.1105 89.4364 76.7952 86.0727 70.9884 81.0727Z" fill="#67696A"/>
</g>
<defs>
<clipPath id="clip0_124_74">
<rect width="92.126" height="100" fill="white" transform="translate(0.997314)"/>
</clipPath>
</defs>
</svg>
